{
    "asset" : {
        "copyright" : "CC0",
        "generator" : "Khronos glTF Blender I/O v1.5.17",
        "version" : "2.0"
    },
    "scene" : 0,
    "scenes" : [
        {
            "name" : "Scene",
            "nodes" : [
                0,
                1,
                2
            ]
        }
    ],
    "nodes" : [
        {
            "mesh" : 0,
            "name" : "Cube",
            "scale" : [
                0.03683420270681381,
                0.03683420270681381,
                0.03683420270681381
            ]
        },
        {
            "name" : "Light",
            "rotation" : [
                0.16907575726509094,
                0.27217137813568115,
                0.7558803558349609,
                0.570947527885437
            ],
            "translation" : [
                4.076245307922363,
                1.0054539442062378,
                5.903861999511719
            ]
        },
        {
            "camera" : 0,
            "name" : "Camera",
            "rotation" : [
                0.483536034822464,
                0.20870360732078552,
                0.33687159419059753,
                0.7804827094078064
            ],
            "translation" : [
                7.358891487121582,
                -6.925790786743164,
                4.958309173583984
            ]
        }
    ],
    "cameras" : [
        {
            "name" : "Camera",
            "perspective" : {
                "aspectRatio" : 1.7777777777777777,
                "yfov" : 0.39959652046304894,
                "zfar" : 100,
                "znear" : 0.10000000149011612
            },
            "type" : "perspective"
        }
    ],
    "materials" : [
        {
            "doubleSided" : true,
            "name" : "Material",
            "pbrMetallicRoughness" : {
                "baseColorFactor" : [
                    0.800000011920929,
                    0.800000011920929,
                    0.800000011920929,
                    1
                ],
                "metallicFactor" : 0,
                "roughnessFactor" : 0.4000000059604645
            }
        },
        {
            "doubleSided" : true,
            "name" : "Material.001",
            "pbrMetallicRoughness" : {
                "baseColorFactor" : [
                    0.08001166582107544,
                    0.08001166582107544,
                    0.08001166582107544,
                    1
                ],
                "metallicFactor" : 0,
                "roughnessFactor" : 0.5
            }
        }
    ],
    "meshes" : [
        {
            "name" : "Cube",
            "primitives" : [
                {
                    "attributes" : {
                        "POSITION" : 0,
                        "NORMAL" : 1,
                        "TEXCOORD_0" : 2
                    },
                    "indices" : 3,
                    "material" : 0
                },
                {
                    "attributes" : {
                        "POSITION" : 4,
                        "NORMAL" : 5,
                        "TEXCOORD_0" : 6
                    },
                    "indices" : 7,
                    "material" : 1
                }
            ]
        }
    ],
    "accessors" : [
        {
            "bufferView" : 0,
            "componentType" : 5126,
            "count" : 1600,
            "max" : [
                1.0744673013687134,
                1.0744673013687134,
                1.9082802534103394
            ],
            "min" : [
                -1.0744673013687134,
                -1.0744673013687134,
                -0.5420306921005249
            ],
            "type" : "VEC3"
        },
        {
            "bufferView" : 1,
            "componentType" : 5126,
            "count" : 1600,
            "type" : "VEC3"
        },
        {
            "bufferView" : 2,
            "componentType" : 5126,
            "count" : 1600,
            "type" : "VEC2"
        },
        {
            "bufferView" : 3,
            "componentType" : 5123,
            "count" : 2400,
            "type" : "SCALAR"
        },
        {
            "bufferView" : 4,
            "componentType" : 5126,
            "count" : 832,
            "max" : [
                0.49943822622299194,
                0.49943822622299194,
                -0.5420306324958801
            ],
            "min" : [
                -0.49943822622299194,
                -0.49943822622299194,
                -1.3801774978637695
            ],
            "type" : "VEC3"
        },
        {
            "bufferView" : 5,
            "componentType" : 5126,
            "count" : 832,
            "type" : "VEC3"
        },
        {
            "bufferView" : 6,
            "componentType" : 5126,
            "count" : 832,
            "type" : "VEC2"
        },
        {
            "bufferView" : 7,
            "componentType" : 5123,
            "count" : 1248,
            "type" : "SCALAR"
        }
    ],
    "bufferViews" : [
        {
            "buffer" : 0,
            "byteLength" : 19200,
            "byteOffset" : 0
        },
        {
            "buffer" : 0,
            "byteLength" : 19200,
            "byteOffset" : 19200
        },
        {
            "buffer" : 0,
            "byteLength" : 12800,
            "byteOffset" : 38400
        },
        {
            "buffer" : 0,
            "byteLength" : 4800,
            "byteOffset" : 51200
        },
        {
            "buffer" : 0,
            "byteLength" : 9984,
            "byteOffset" : 56000
        },
        {
            "buffer" : 0,
            "byteLength" : 9984,
            "byteOffset" : 65984
        },
        {
            "buffer" : 0,
            "byteLength" : 6656,
            "byteOffset" : 75968
        },
        {
            "buffer" : 0,
            "byteLength" : 2496,
            "byteOffset" : 82624
        }
    ],
    "buffers" : [
        {
            "byteLength" : 85120,
            "uri" : "data:application/octet-stream;base64,"
        }
    ]
}
