{
    "asset" : {
        "copyright" : "cc0",
        "generator" : "Khronos glTF Blender I/O v1.5.17",
        "version" : "2.0"
    },
    "scene" : 0,
    "scenes" : [
        {
            "name" : "Scene",
            "nodes" : [
                0,
                1,
                2,
                3,
                4,
                5,
                6
            ]
        }
    ],
    "nodes" : [
        {
            "mesh" : 0,
            "name" : "body",
            "scale" : [
                0.9192438125610352,
                0.9192438125610352,
                0.9192438125610352
            ],
            "translation" : [
                0,
                0,
                0.9626717567443848
            ]
        },
        {
            "name" : "Light",
            "rotation" : [
                0.16907575726509094,
                0.27217137813568115,
                0.7558803558349609,
                0.570947527885437
            ],
            "translation" : [
                4.076245307922363,
                -10.093335151672363,
                6.003726482391357
            ]
        },
        {
            "camera" : 0,
            "name" : "Camera",
            "rotation" : [
                0.483536034822464,
                0.20870360732078552,
                0.33687159419059753,
                0.7804827094078064
            ],
            "translation" : [
                7.358891487121582,
                -6.925790786743164,
                0.044614315032958984
            ]
        },
        {
            "name" : "Empty",
            "rotation" : [
                0.7071068286895752,
                0,
                0,
                0.7071067094802856
            ],
            "scale" : [
                6.520430564880371,
                6.520430564880371,
                6.520430564880371
            ],
            "translation" : [
                -0.21230043470859528,
                31.32518768310547,
                10.035076141357422
            ]
        },
        {
            "mesh" : 1,
            "name" : "body ac",
            "scale" : [
                0.9550372362136841,
                0.9550372362136841,
                0.9550372362136841
            ],
            "translation" : [
                0,
                0,
                0.9626717567443848
            ]
        },
        {
            "mesh" : 2,
            "name" : "Sphere",
            "rotation" : [
                0,
                -0.4342987835407257,
                0,
                0.9007688760757446
            ],
            "scale" : [
                0.8293529748916626,
                0.8293529152870178,
                0.8293529748916626
            ],
            "translation" : [
                2.526529312133789,
                0.25934070348739624,
                0.4156527519226074
            ]
        },
        {
            "mesh" : 3,
            "name" : "Sphere.001",
            "rotation" : [
                0.20372773706912994,
                0,
                0,
                0.9790276885032654
            ],
            "scale" : [
                1.5992412567138672,
                1.7232328653335571,
                1.8812001943588257
            ],
            "translation" : [
                0.01590559631586075,
                0.004038363695144653,
                1.6849689483642578
            ]
        }
    ],
    "cameras" : [
        {
            "name" : "Camera",
            "perspective" : {
                "aspectRatio" : 1.7777777777777777,
                "yfov" : 0.39959652046304894,
                "zfar" : 100,
                "znear" : 0.10000000149011612
            },
            "type" : "perspective"
        }
    ],
    "materials" : [
        {
            "doubleSided" : true,
            "name" : "Material",
            "pbrMetallicRoughness" : {
                "baseColorFactor" : [
                    1,
                    0.14608702063560486,
                    0.00705929659307003,
                    1
                ],
                "metallicFactor" : 0,
                "roughnessFactor" : 0.4000000059604645
            }
        },
        {
            "doubleSided" : true,
            "name" : "Material.001",
            "pbrMetallicRoughness" : {
                "metallicFactor" : 0,
                "roughnessFactor" : 0.4000000059604645
            }
        }
    ],
    "meshes" : [
        {
            "name" : "Cube",
            "primitives" : [
                {
                    "attributes" : {
                        "POSITION" : 0,
                        "NORMAL" : 1,
                        "TEXCOORD_0" : 2
                    },
                    "indices" : 3,
                    "material" : 0
                }
            ]
        },
        {
            "name" : "Cube.001",
            "primitives" : [
                {
                    "attributes" : {
                        "POSITION" : 4,
                        "NORMAL" : 5,
                        "TEXCOORD_0" : 6
                    },
                    "indices" : 7,
                    "material" : 1
                }
            ]
        },
        {
            "name" : "Sphere",
            "primitives" : [
                {
                    "attributes" : {
                        "POSITION" : 8,
                        "NORMAL" : 9,
                        "TEXCOORD_0" : 10
                    },
                    "indices" : 11
                }
            ]
        },
        {
            "name" : "Sphere.001",
            "primitives" : [
                {
                    "attributes" : {
                        "POSITION" : 12,
                        "NORMAL" : 13,
                        "TEXCOORD_0" : 14
                    },
                    "indices" : 15
                }
            ]
        }
    ],
    "accessors" : [
        {
            "bufferView" : 0,
            "componentType" : 5126,
            "count" : 1752,
            "max" : [
                2.567189931869507,
                2.3036956787109375,
                1.6399121284484863
            ],
            "min" : [
                0,
                -1.8615143299102783,
                -2.369525909423828
            ],
            "type" : "VEC3"
        },
        {
            "bufferView" : 1,
            "componentType" : 5126,
            "count" : 1752,
            "type" : "VEC3"
        },
        {
            "bufferView" : 2,
            "componentType" : 5126,
            "count" : 1752,
            "type" : "VEC2"
        },
        {
            "bufferView" : 3,
            "componentType" : 5123,
            "count" : 2628,
            "type" : "SCALAR"
        },
        {
            "bufferView" : 4,
            "componentType" : 5126,
            "count" : 816,
            "max" : [
                2.5396761894226074,
                2.036329746246338,
                1.668804407119751
            ],
            "min" : [
                0,
                -1.8491313457489014,
                -2.0162413120269775
            ],
            "type" : "VEC3"
        },
        {
            "bufferView" : 5,
            "componentType" : 5126,
            "count" : 816,
            "type" : "VEC3"
        },
        {
            "bufferView" : 6,
            "componentType" : 5126,
            "count" : 816,
            "type" : "VEC2"
        },
        {
            "bufferView" : 7,
            "componentType" : 5123,
            "count" : 1224,
            "type" : "SCALAR"
        },
        {
            "bufferView" : 8,
            "componentType" : 5126,
            "count" : 559,
            "max" : [
                0.7464984059333801,
                0.7713010311126709,
                0.8684162497520447
            ],
            "min" : [
                -0.7488391995429993,
                -0.7720155715942383,
                -0.6213471293449402
            ],
            "type" : "VEC3"
        },
        {
            "bufferView" : 9,
            "componentType" : 5126,
            "count" : 559,
            "type" : "VEC3"
        },
        {
            "bufferView" : 10,
            "componentType" : 5126,
            "count" : 559,
            "type" : "VEC2"
        },
        {
            "bufferView" : 11,
            "componentType" : 5123,
            "count" : 2880,
            "type" : "SCALAR"
        },
        {
            "bufferView" : 12,
            "componentType" : 5126,
            "count" : 169,
            "max" : [
                0.9849838614463806,
                0.941126823425293,
                0.8383033871650696
            ],
            "min" : [
                0,
                -1.2040268182754517,
                -0.35033470392227173
            ],
            "type" : "VEC3"
        },
        {
            "bufferView" : 13,
            "componentType" : 5126,
            "count" : 169,
            "type" : "VEC3"
        },
        {
            "bufferView" : 14,
            "componentType" : 5126,
            "count" : 169,
            "type" : "VEC2"
        },
        {
            "bufferView" : 15,
            "componentType" : 5123,
            "count" : 816,
            "type" : "SCALAR"
        }
    ],
    "bufferViews" : [
        {
            "buffer" : 0,
            "byteLength" : 21024,
            "byteOffset" : 0
        },
        {
            "buffer" : 0,
            "byteLength" : 21024,
            "byteOffset" : 21024
        },
        {
            "buffer" : 0,
            "byteLength" : 14016,
            "byteOffset" : 42048
        },
        {
            "buffer" : 0,
            "byteLength" : 5256,
            "byteOffset" : 56064
        },
        {
            "buffer" : 0,
            "byteLength" : 9792,
            "byteOffset" : 61320
        },
        {
            "buffer" : 0,
            "byteLength" : 9792,
            "byteOffset" : 71112
        },
        {
            "buffer" : 0,
            "byteLength" : 6528,
            "byteOffset" : 80904
        },
        {
            "buffer" : 0,
            "byteLength" : 2448,
            "byteOffset" : 87432
        },
        {
            "buffer" : 0,
            "byteLength" : 6708,
            "byteOffset" : 89880
        },
        {
            "buffer" : 0,
            "byteLength" : 6708,
            "byteOffset" : 96588
        },
        {
            "buffer" : 0,
            "byteLength" : 4472,
            "byteOffset" : 103296
        },
        {
            "buffer" : 0,
            "byteLength" : 5760,
            "byteOffset" : 107768
        },
        {
            "buffer" : 0,
            "byteLength" : 2028,
            "byteOffset" : 113528
        },
        {
            "buffer" : 0,
            "byteLength" : 2028,
            "byteOffset" : 115556
        },
        {
            "buffer" : 0,
            "byteLength" : 1352,
            "byteOffset" : 117584
        },
        {
            "buffer" : 0,
            "byteLength" : 1632,
            "byteOffset" : 118936
        }
    ],
    "buffers" : [
        {
            "byteLength" : 120568,
            "uri" : "data:application/octet-stream;base64,"
        }
    ]
}
